<?xml version="1.0" standalone="no"?><!DOCTYPE svg PUBLIC "-//W3C//DTD SVG 1.1//EN" "http://www.w3.org/Graphics/SVG/1.1/DTD/svg11.dtd"><svg t="1573141384266" class="icon" viewBox="0 0 1024 1024" version="1.1" xmlns="http://www.w3.org/2000/svg" p-id="83178" xmlns:xlink="http://www.w3.org/1999/xlink" width="64" height="64"><defs><style type="text/css"></style></defs><path d="M788.845714 223.268571h177.846857v733.952c0 37.961143-28.854857 66.779429-66.779428 66.779429H188.416c-37.924571 0-66.779429-28.818286-66.779429-66.779429V67.84C121.636571 29.915429 150.491429 1.097143 188.416 1.097143h556.068571v177.883428h44.617143v44.324572h-0.292571z m-66.816-22.162285V23.222857H188.416c-24.576 0-44.617143 20.041143-44.617143 44.617143v889.380571c0 24.576 20.041143 44.617143 44.617143 44.617143h711.497143c24.576 0 44.617143-20.041143 44.617143-44.617143V245.430857h-177.883429V200.777143h-44.617143v0.292571z" fill="#9FA0A6" p-id="83179"></path><path d="M755.419429 245.394286h-33.389715V0.804571h22.162286v22.162286h22.162286v22.162286h22.162285v22.162286h22.162286v22.162285h22.162286v22.125715h22.162286v22.162285h22.125714v22.162286h22.162286v22.162286h22.162285v22.162285h22.162286v22.162286h22.162286v22.162286h-244.662857v-33.389714c0.914286 18.797714 16.384 34.304 34.304 34.304zM210.578286 935.094857H877.714286v-44.617143H210.578286v44.617143z m0-111.104H877.714286v-44.617143H210.578286v44.617143z m0-111.396571H877.714286v-44.617143H210.578286v44.617143z" fill="#9FA0A6" p-id="83180"></path><path d="M99.474286 112.164571h355.766857c24.576 0 44.617143 20.041143 44.617143 44.617143v355.766857c0 24.576-20.041143 44.617143-44.617143 44.617143H99.474286c-24.576 0-44.617143-20.041143-44.617143-44.617143V156.489143a44.617143 44.617143 0 0 1 44.617143-44.324572z" fill="#646464" p-id="83181"></path><path d="M284.013714 385.060571H241.846857v-14.884571c-0.329143-10.313143 1.828571-20.626286 6.363429-29.732571 5.156571-9.435429 12.434286-17.627429 20.955428-24.283429 8.484571-6.4 16.091429-14.262857 22.454857-22.784a35.401143 35.401143 0 0 0 5.778286-19.126857 23.222857 23.222857 0 0 0-8.192-18.797714 35.181714 35.181714 0 0 0-23.698286-6.985143 83.382857 83.382857 0 0 0-55.844571 22.454857V221.44A125.988571 125.988571 0 0 1 270.628571 206.555429a88.137143 88.137143 0 0 1 56.758858 16.713142 54.857143 54.857143 0 0 1 20.041142 44.617143c0 11.849143-2.742857 23.369143-8.192 34.011429-7.314286 12.434286-17.005714 23.369143-28.525714 31.853714a103.497143 103.497143 0 0 0-21.577143 21.577143 36.681143 36.681143 0 0 0-4.827428 18.505143v11.227428h-0.329143z m-20.918857 23.369143a30.098286 30.098286 0 0 1 20.918857 7.899429 24.502857 24.502857 0 0 1 8.521143 19.126857 24.868571 24.868571 0 0 1-8.521143 18.797714 29.586286 29.586286 0 0 1-20.918857 7.899429 30.098286 30.098286 0 0 1-20.955428-7.899429 24.246857 24.246857 0 0 1-8.484572-18.505143c0-7.314286 3.035429-14.262857 8.484572-18.834285a27.684571 27.684571 0 0 1 20.955428-8.484572z" fill="#FFFFFF" p-id="83182"></path></svg>